<?xml version="1.0" encoding="UTF-8"?>
<svg id="Layer_2"
  xmlns="http://www.w3.org/2000/svg"
  xmlns:xlink="http://www.w3.org/1999/xlink" viewBox="0 0 3692.6 840.71">
  <defs>
    <style>.cls-1{fill:url(#New_Gradient_Swatch-11);}.cls-2{fill:url(#New_Gradient_Swatch-10);}.cls-3{fill:url(#New_Gradient_Swatch);}.cls-4{fill:#d66c27;}.cls-5{fill:url(#New_Gradient_Swatch-5);}.cls-6{fill:url(#New_Gradient_Swatch-4);}.cls-7{fill:url(#New_Gradient_Swatch-7);}.cls-8{fill:url(#New_Gradient_Swatch-6);}.cls-9{fill:url(#New_Gradient_Swatch-8);}.cls-10{fill:url(#New_Gradient_Swatch-9);}.cls-11{fill:url(#New_Gradient_Swatch-3);}.cls-12{fill:url(#New_Gradient_Swatch-2);}</style>
    <linearGradient id="New_Gradient_Swatch" x1="97.06" y1="617.12" x2="3569.02" y2="617.12" gradientUnits="userSpaceOnUse">
      <stop offset="0" stop-color="#da9535"/>
      <stop offset="1" stop-color="#d66c20"/>
    </linearGradient>
    <linearGradient id="New_Gradient_Swatch-2" y1="518.36" x2="3569.02" y2="518.36" xlink:href="#New_Gradient_Swatch"/>
    <linearGradient id="New_Gradient_Swatch-3" x1="97.06" y1="455.15" x2="3569.02" y2="455.15" xlink:href="#New_Gradient_Swatch"/>
    <linearGradient id="New_Gradient_Swatch-4" x1="97.06" y1="398.31" x2="3569.02" y2="398.31" xlink:href="#New_Gradient_Swatch"/>
    <linearGradient id="New_Gradient_Swatch-5" x1="97.06" y1="374.76" x2="3569.02" y2="374.76" xlink:href="#New_Gradient_Swatch"/>
    <linearGradient id="New_Gradient_Swatch-6" y1="363.3" x2="3569.02" y2="363.3" xlink:href="#New_Gradient_Swatch"/>
    <linearGradient id="New_Gradient_Swatch-7" x1="97.06" y1="371.22" x2="3569.02" y2="371.22" xlink:href="#New_Gradient_Swatch"/>
    <linearGradient id="New_Gradient_Swatch-8" x1="97.06" y1="404.08" x2="3569.02" y2="404.08" xlink:href="#New_Gradient_Swatch"/>
    <linearGradient id="New_Gradient_Swatch-9" x1="97.06" y1="444.64" x2="3569.02" y2="444.64" xlink:href="#New_Gradient_Swatch"/>
    <linearGradient id="New_Gradient_Swatch-10" x1="97.06" y1="524.17" x2="3569.02" y2="524.17" xlink:href="#New_Gradient_Swatch"/>
    <linearGradient id="New_Gradient_Swatch-11" x1="97.06" y1="615.16" x2="3569.02" y2="615.16" xlink:href="#New_Gradient_Swatch"/>
  </defs>
  <g id="YOUR_TEXT">
    <g>
      <g>
        <path class="cls-3" d="M9.41,598.19c-11.68-33.85-35.86-129.84,101.32-173.54,121.77-37.61,162.89,30.66,177.29,70.74,3.27,9.34-.19,16.6-9.79,21.64-20.09,10.54-40.1,21.19-60.03,31.95-10.64,5.49-18.27,2.66-22.76-8.03-9.91-24.5-24.08-36.34-56.5-26.22-42.07,13.24-36.93,38.84-23.96,79.02,8.08,25.08,16.16,50.15,24.24,75.23,12.98,40.26,23.62,63.79,64.01,51.07,40.42-12.59,35.72-37.98,27.89-63.75-10.69,3.25-21.37,6.53-32.05,9.85-10.48,3.26-18.36-.58-21.49-10.53-4.39-13.96-8.77-27.93-13.16-41.89-3.29-10.47,1.21-17.65,11.85-20.95,37.32-11.6,74.74-22.8,112.24-33.59,11.25-3.24,18.39,.45,21.39,11.01,6.76,23.76,13.52,47.51,20.27,71.27,9.96,35.23,28.27,129.58-98.73,168.68-126.71,40.35-165.73-47.51-177.59-82.14-14.82-43.27-29.63-86.54-44.45-129.81Z"/>
        <path class="cls-12" d="M389.09,355.3c11.66-3.02,18.85,.81,21.57,11.45,17.78,69.48,35.56,138.96,53.34,208.43,10.5,40.98,19.66,65.12,60.58,54.94,40.94-10.06,37.79-35.68,27.99-76.83-16.63-69.76-33.26-139.52-49.89-209.29-2.55-10.68,2.61-17.56,13.74-20.17,21.85-5.14,43.73-10.15,65.62-15.02,11.73-2.61,18.78,1.47,21.13,12.19,17.45,79.52,34.91,159.04,52.36,238.56,7.79,35.77,20.32,131.07-108.3,162.21-128.39,32.39-161.89-57.73-171.61-93.02-21.6-78.49-43.2-156.99-64.81-235.48-2.92-10.58,2.02-17.64,13.07-20.65,21.71-5.9,43.44-11.67,65.2-17.31Z"/>
        <path class="cls-11" d="M883.53,388.1c-11.16,4.14-17.77,.29-21.4-10.22-7.9-21.46-29.59-32.17-56.92-27.13-22.68,4.19-34.23,19.28-29.54,31.23,8.01,20.25,57.62,21.41,107.48,34.05,49.88,12.49,99.99,36.45,109.48,98.84,2.49,16.66-1.95,114.25-131.78,137.61-114.98,21.62-155.4-46.12-167.27-87.66-2.62-9.54,1.17-16.53,10.83-20.8,20.21-8.91,40.5-17.71,60.86-26.39,10.86-4.38,18.02-.73,21.33,10.37,7.3,25.42,30.87,36.48,57.13,31.65,27.37-5.05,44.8-24.22,38.88-38.23-9.43-22.04-56.11-23-103.77-33.06-47.65-10.19-96.27-29.46-109.46-91.2-3.95-15.62-13.98-114.14,118.7-139.23,122.13-22.08,161.93,47.25,171.35,85.48,2.11,9.67-2.18,16.45-12.26,20.27-21.29,8.02-42.51,16.17-63.65,24.43Z"/>
        <path class="cls-6" d="M1095.9,330.39c-1.43-10.88-7.99-15.56-19.66-13.99-27.23,3.67-54.45,7.55-81.64,11.62-11.07,1.66-18.38-3.32-19.97-13.63-3.1-20.25-6.2-40.51-9.3-60.76-1.66-10.85,4.02-17.28,15.28-18.97,101.1-15.14,202.5-27.58,304.1-37.31,11.91-1.14,18.37,3.79,19.38,14.71,1.89,20.4,3.78,40.81,5.67,61.21,.96,10.39-4.34,16.93-16.05,18.05-27.32,2.62-54.64,5.43-81.93,8.44-11.12,1.23-16.93,7.42-15.68,18.33,9.67,85.07,19.33,170.15,29,255.22,1.17,10.36-3.69,16.98-14.78,18.28-20.71,2.42-41.4,4.96-62.08,7.62-10.52,1.35-17.4-3.82-18.77-14.16-11.19-84.89-22.37-169.77-33.56-254.66Z"/>
        <path class="cls-5" d="M1606.7,175.62c11.94-.47,18.11,4.81,18.51,15.78,.74,20.48,1.48,40.95,2.23,61.43,.37,10.42-5.28,16.66-17.02,17.12-47.37,1.86-94.72,4.32-142.05,7.38-11.15,.72-17.23,6.64-16.49,17.59,.4,5.84,.79,11.68,1.19,17.52,.71,10.41,7.51,15.99,18.55,15.27,30.04-1.94,60.09-3.64,90.15-5.09,11.64-.56,17.71,4.67,18.2,15.63,.93,20.47,1.85,40.94,2.78,61.41,.47,10.42-4.98,16.7-16.42,17.25-29.55,1.43-59.1,3.1-88.63,5.01-10.86,.7-16.78,6.61-16.03,17.56,.4,5.84,.79,11.68,1.19,17.52,.71,10.41,7.35,16,18.1,15.3,45.69-2.95,91.41-5.32,137.14-7.13,11.34-.44,17.21,4.84,17.61,15.81,.74,20.48,1.48,40.95,2.23,61.43,.39,10.97-4.98,16.65-16.12,17.09-78,3.07-155.95,7.84-233.8,14.32-10.56,.88-17.19-4.6-18.09-14.99-10.07-116.66-20.14-233.31-30.21-349.97-.95-10.93,5.13-16.98,16.46-17.92,83.41-6.94,166.94-12.05,250.53-15.34Z"/>
        <path class="cls-8" d="M1668.22,297.07c-1.1-35.8,4-134.61,146.28-135.76,126.03,.08,145.04,77.43,146.9,119.98,.36,9.89-5.04,15.8-15.6,17.78-22.09,4.13-44.14,8.39-66.12,12.79-11.67,2.1-18.05-2.86-19.16-14.4-2.19-26.34-12.13-41.83-45.71-41.75-43.6,.21-46.21,26.17-45.72,68.39,.3,26.34,.6,52.69,.9,79.03,.49,42.3,3.65,67.92,45.51,67.73,41.86-.07,44.86-25.72,45-52.65-11.05-.05-22.11-.08-33.16-.07-10.86,.01-17.17-5.99-17.22-16.42-.06-14.64-.12-29.27-.18-43.91-.05-10.98,6.31-16.5,17.32-16.51,38.65-.04,77.29,.32,115.94,1.08,11.6,.23,17.27,5.86,17.01,16.83-.56,24.69-1.13,49.38-1.69,74.08-.87,36.59-11.29,132.17-142.71,131.97-131.42,1.05-142.45-94.46-143.56-131.05-1.34-45.72-2.68-91.44-4.02-137.15Z"/>
        <path class="cls-7" d="M2276.28,554.96c-1,12.04-7.1,18.13-18.22,17.25-20.76-1.65-41.53-3.18-62.31-4.58-10.57-.71-16.34-6.58-15.64-17.54,1.03-15.88,2.05-31.77,3.08-47.65,.71-10.95-4.58-16.8-15.89-17.5-16.2-1-32.4-1.92-48.6-2.77-10.74-.56-17.23,4.62-17.77,15.58-.78,15.9-1.57,31.8-2.35,47.69-.55,10.97-6.39,16.16-17.52,15.65-20.8-.96-41.6-1.8-62.4-2.52-10.58-.36-16.51-7.13-16.13-19.2,2.44-77.53,4.88-155.07,7.32-232.6,2.08-68.76,16.12-143.23,150.99-136.16,134.81,8.28,140.34,83.87,134.6,152.42-6.38,77.31-12.76,154.62-19.14,231.92Zm-81.03-239.29c1.7-26.26-1.54-39.78-40.29-42.04-38.76-2.16-43.51,10.91-44.8,37.19-.98,19.92-1.97,39.83-2.95,59.75-.51,10.42,5.52,16.75,16.44,17.32,16.49,.87,32.97,1.8,49.45,2.82,11.53,.16,17.63-4.94,18.34-15.89,1.27-19.72,2.55-39.44,3.82-59.15Z"/>
        <path class="cls-9" d="M2624.05,583.98c5.68,15.28-5.47,29.13-22.59,26.65-21.02-3.04-42.05-5.95-63.1-8.74-5.54-.73-10.17-4.11-11.75-9.29-14.49-38.97-29.38-77.88-44.68-116.74-.94-1.77-2.51-3.06-4.21-3.26-7.56-.89-15.12-1.77-22.68-2.63-10.22-1.16-18.38,5.12-19.46,14.94-3.18,28.73-6.36,57.46-9.55,86.19-1.09,9.82-9.09,16.11-19.08,15.03-20.72-2.23-41.45-4.33-62.19-6.32-9.99-.96-16.56-8.73-15.66-18.56,10.75-116.23,21.5-232.45,32.25-348.68,.9-9.84,9.3-16.23,20.02-15.2,43.46,4.16,86.88,8.82,130.26,13.97,105.99,12.82,142.58,61.08,129.43,149.94-7.36,50.52-25.71,83.84-58.65,100.36-2.5,1.32-3.44,3.96-2.67,6.84,15.17,38.45,29.94,76.97,44.31,115.53Zm-149.85-281.98c-10.53-1.2-18.92,5.05-20,14.87-1.49,13.46-2.98,26.91-4.47,40.37-1.08,9.82,5.63,17.74,16.02,18.92,9.81,1.12,19.61,2.26,29.42,3.43,27.67,3.32,41.9,1.86,46.21-31.91,4.31-33.74-9.3-38.85-37.36-42.21-9.93-1.19-19.87-2.35-29.81-3.48Z"/>
        <path class="cls-10" d="M2864.61,264.39c111.12,20.56,138.84,69.92,120.24,157.75-8.21,39.22-16.42,78.43-24.63,117.65-18.67,88.27-61.25,121.66-164.49,102.57-40.93-7.46-81.92-14.44-122.98-20.94-10.49-1.66-15.64-8.56-14.05-18.87,17.92-115.52,35.84-231.05,53.77-346.57,1.68-10.85,8.44-15.36,20.37-14.03,43.99,6.97,87.92,14.44,131.78,22.44Zm-50.28,285.4c26.88,4.92,41.12,3.21,47.3-29.15,.1-.54,22.47-118.08,22.58-118.62,6.38-33.41-6.92-39.35-34.78-44.45-10.45-1.91-20.9-3.78-31.35-5.63-11.04-1.95-18.37,2.36-20.24,13.17-9.26,53.36-18.52,106.71-27.78,160.07-1.78,10.28,3.36,17.29,14.01,19.17,10.09,1.78,20.18,3.6,30.27,5.44Z"/>
        <path class="cls-2" d="M3327.66,368.69c11.64,3.13,16.01,10.02,13.12,20.61-5.39,19.77-10.77,39.54-16.16,59.31-2.75,10.06-10.05,14.32-21.49,11.24-46.16-12.42-92.44-24.24-138.83-35.47-10.93-2.64-18.54,1.19-21.08,11.87-1.36,5.69-2.72,11.39-4.08,17.08-2.42,10.15,2.46,17.51,13.28,20.13,29.45,7.13,58.85,14.5,88.2,22.11,11.37,2.95,15.65,9.76,12.86,20.37-5.2,19.82-10.41,39.64-15.61,59.45-2.65,10.09-9.77,14.45-20.94,11.55-28.86-7.48-57.77-14.73-86.72-21.74-10.65-2.58-18.09,1.3-20.64,11.97-1.36,5.69-2.72,11.39-4.08,17.08-2.42,10.15,2.29,17.47,12.84,20.02,44.79,10.84,89.47,22.26,134.03,34.25,11.05,2.98,15.13,9.78,12.24,20.37-5.39,19.77-10.77,39.54-16.16,59.31-2.89,10.59-9.76,14.4-20.61,11.48-76.01-20.45-152.36-39.2-228.99-56.24-10.4-2.31-15.13-9.52-12.9-19.71,25.07-114.37,50.13-228.75,75.2-343.12,2.35-10.72,9.98-14.68,21.13-12.2,82.12,18.27,163.93,38.36,245.38,60.27Z"/>
        <path class="cls-1" d="M3492.36,415.64c9.83,2.96,15.07,8.58,16.54,18.2,8.34,66.24,15.81,132.43,22.41,198.52,.72,5.42,5.49,5.8,7.18,.58,18.13-56.24,36.25-112.49,54.38-168.73,3.36-10.45,11.38-13.64,22.31-10.08,21.47,6.99,42.91,14.12,64.31,21.37,11.47,3.89,15.42,11.05,11.86,21.43-37.93,110.78-75.85,221.55-113.78,332.33-3.38,9.87-10.68,13.74-21.38,10.11-26.22-8.88-52.49-17.56-78.81-26.03-9.13-2.94-13.87-8.47-14.99-18.04-5.98-65.82-12.84-131.73-20.57-197.71-.81-5.41-5.61-5.7-7.18-.45-17.01,56.59-34.03,113.18-51.04,169.77-3.01,9.99-10.14,14.14-20.93,10.93-20.16-5.99-40.34-11.86-60.55-17.61-10.28-2.92-14.61-10.4-11.79-20.44,31.68-112.72,63.37-225.44,95.05-338.16,2.97-10.57,10.84-14.06,21.86-10.93,28.42,8.09,56.8,16.39,85.12,24.93Z"/>
      </g>
      <path class="cls-4" d="M2221.37,93.37c-.81,12.09-5.81,44.05-53.26,41.23-47.47-2.67-48.74-34.99-48.15-47.1,.75-15.23,1.5-30.46,2.25-45.69,.59-12.02,5.01-44.39,53.68-41.65,48.66,2.89,49.33,35.56,48.52,47.56-1.01,15.21-2.03,30.43-3.04,45.64Zm-32.56-38.19c.85-14.06,.36-22.72-14.75-23.6-15.1-.87-16.6,7.68-17.37,21.74-.48,8.77-.97,17.54-1.45,26.31-.77,14.07-.24,22.7,14.68,23.55,14.91,.87,16.44-7.64,17.3-21.7,.53-8.77,1.06-17.53,1.59-26.3Z"/>
    </g>
  </g>
</svg>